<svg width="48" height="48" viewBox="0 0 48 48" fill="none" xmlns="http://www.w3.org/2000/svg">
  <path d="M24 4C12.954 4 4 12.954 4 24C4 35.046 12.954 44 24 44C35.046 44 44 35.046 44 24" stroke="#8B7E74" stroke-width="2" stroke-linecap="round"/>
  <path d="M24 10C16.268 10 10 16.268 10 24C10 31.732 16.268 38 24 38C31.732 38 38 31.732 38 24" stroke="#8B7E74" stroke-width="2" stroke-linecap="round"/>
  <path d="M24 16C19.582 16 16 19.582 16 24C16 28.418 19.582 32 24 32C28.418 32 32 28.418 32 24" stroke="#8B7E74" stroke-width="2" stroke-linecap="round"/>
  <path d="M24 22C22.895 22 22 22.895 22 24C22 25.105 22.895 26 24 26C25.105 26 26 25.105 26 24" stroke="#8B7E74" stroke-width="2" stroke-linecap="round"/>
</svg>
